<?xml version="1.0" encoding="UTF-8"?>
<svg viewBox="0 0 914 671" xmlns="http://www.w3.org/2000/svg">
<path d="m450.72 505.62c86.569 0 156.75-7.615 156.75-17.008s-70.177-17.008-156.75-17.008c-86.568 0-156.75 7.615-156.75 17.008s70.178 17.008 156.75 17.008z" fill="#E5E1DC"/>
<path d="m409.54 309.41s5.7 4.208 27.488 5.348c21.789 1.14 29.511-6.926 29.511-6.926s5.7-13.063-3.677-31.824c-9.286-18.762-26.293-20.34-35.579-12.625-9.285 7.715 0.828 34.893-17.743 46.027z" fill="#141414"/>
<path d="m398.23 474.58-0.368 6.838s-17.1-0.614-19.214 2.981c-2.023 3.594 14.066 0.964 19.214 1.315l5.148 0.351 0.644-12.713-5.424 1.228z" fill="#141414"/>
<path d="m462.31 466.43 14.433 4.91-2.758 10.783s-3.769-2.63-5.791 0c-2.023 2.63 0 3.595 0 3.595h8.182c1.287 0 6.527-13.414 5.792-16.044-0.644-2.63-18.847-6.575-18.847-6.575l-1.011 3.331z" fill="#141414"/>
<path d="m420.48 381.39-24.638 94.772 8.55-0.614 21.972-63.736s7.906 38.925 10.664 41.818c2.758 2.981 27.396 14.992 27.396 14.992l2.391-5.26s-21.605-12.449-22.984-18.586c-1.379-6.225 7.539-41.468 5.149-53.918-2.482-12.361-28.5-9.468-28.5-9.468z" fill="#7E8083"/>
<path d="m397.86 353.68-18.479 35.594s2.39 3.244 8.182-2.63 16.456-32 16.456-32l-6.159-0.964z" fill="#FED296"/>
<path d="m503.77 470.64 0.643 9.82s-15.72 2.63-14.433 4.208c1.379 1.666 21.972-0.965 21.972-0.965l-3.126-12.098-5.056-0.965z" fill="#141414"/>
<path d="m553.5 462.83 5.516 12.449s6.895 10.433 9.561 10.784c2.758 0.35 9.561 0.613 9.561 0.613s0-4.208-5.792-5.26c-5.792-0.964-10.297-14.992-11.308-16.657-1.103-1.666-7.538-1.929-7.538-1.929z" fill="#141414"/>
<path d="m489.33 371.92 10.297 100.38 11.308 1.929v-71.539s36.313 57.862 42.473 62.071c6.159 4.208 9.285 0 9.285 0s-31.901-82.323-31.901-90.564c0-8.154-41.462-2.28-41.462-2.28z" fill="#7E8083"/>
<path d="m498.44 300.91-15.721 0.175-14.893 14.817s-3.402 9.381 3.218 14.641l10.756-8.066s-1.379 45.764-1.379 49.271 17.559 14.816 34.934 13.94c17.376-0.877 18.755-11.135 18.755-11.135l-3.861-41.38s9.377-3.244 9.101-9.819c-0.184-6.576-9.377-19.2-10.48-19.638-1.196-0.439-15.353-6.926-30.43-2.806z" fill="#00B0D8"/>
<path d="m469.11 326.42s4.321-1.315 3.218-4.822c-1.104-3.506-10.297-4.821-13.698-6.312-3.402-1.49-16.916-3.244-16.916 1.315s27.396 9.819 27.396 9.819z" fill="#FED296"/>
<path d="m397.22 354.65s21.237-37.873 26.385-39.188c5.148-1.316 31.533-1.929 38.704 2.98 7.171 4.91 8.917 49.973 8.917 49.973l-8.917 1.315-6.527-30.685-8.182 48.394s-19.49 4.559-25.374 1.315c-5.792-3.244-0.368-38.926-0.368-38.926s-3.769-1.928-3.769-3.945c0-1.929 3.126-11.748 3.126-11.748l-18.479 22.882-5.516-2.367z" fill="#F37D8C"/>
<path d="m436.93 304.32 0.368 13.414-9.561-0.614s3.126 6.576 10.664 7.54c7.539 0.964 15.077-7.189 15.077-7.189l-10.296-0.351 1.379-14.728-7.631 1.928z" fill="#FED296"/>
<path d="m428.38 267.68s-6.987 33.052 4.412 39.978c11.4 7.013 18.755-15.693 18.755-15.693s5.056 2.63 5.516-2.192-1.379-9.118-5.516-5.26c0 0-14.985-7.452-14.985-20.778l-8.182 3.945z" fill="#FED296"/>
<path d="m429.76 378.84s35.946-11.397 37.049-11.397c1.011 0 5.792-0.351 2.758 5.26-3.126 5.436-43.577 12.274-39.807 6.137z" fill="#FED296"/>
<path d="m469.02 377.36c-0.551-2.455-1.195-4.997-2.114-6.926-0.92-1.841-2.023-3.419-3.862-3.419-0.183 0-0.367 0-0.459 0.088-1.379 0.263-2.574 1.227-3.678 2.63 0.92-0.263 1.839-0.526 2.666-0.789h0.092c0.46-0.351 0.828-0.526 1.196-0.526h0.275c0.736-0.088 1.747 0.876 2.666 2.717 1.288 2.631 2.207 6.751 2.758 10.17 0.552 3.419 0.828 6.137 0.828 6.137l1.379-0.088c-0.276-0.087-0.644-4.997-1.747-9.994zm-18.019 9.468 1.287 0.351c0-0.088 1.287-4.296 3.218-8.767-0.552 0.088-1.103 0.263-1.655 0.351-1.747 4.296-2.85 8.065-2.85 8.065z" fill="#141414"/>
<path d="m445.39 386.3s-2.114 35.858-1.011 36.121c1.195 0.263 5.792 2.63 5.792 2.63l26.017-0.351s4.045-5.874 4.229-6.225c0.092-0.438-5.148-33.49-5.148-33.49l-29.879 1.315z" fill="#00B0D8"/>
<path d="m461.66 415.93c6.296 0 11.4-4.867 11.4-10.871s-5.104-10.871-11.4-10.871c-6.295 0-11.399 4.867-11.399 10.871s5.104 10.871 11.399 10.871z" fill="#fff"/>
<path d="m321.74 415.4s-20.869-2.981-20.869 0.351c0 3.244 16.089 5.26 17.835 5.26 1.655 0 3.034-5.611 3.034-5.611z" fill="#FED296"/>
<path d="m345.55 451.52s7.814 29.808 7.814 30.51c0 0.613-9.101 0.438-9.377 1.928-0.184 1.491 15.353 1.754 15.353 1.754l-2.758-25.951 9.837 1.315 4.596 19.376s-7.814 2.805-5.699 3.506c2.022 0.614 10.94 0 10.94 0s-2.023-31.999-2.023-34.454c-0.184-2.367-28.683 2.016-28.683 2.016z" fill="#141414"/>
<path d="m338.01 417.51s0 0.263 0.092 0.877c0.552 5.435 3.861 35.243 4.229 36.646 0.46 1.491 18.755 6.137 29.511 1.754 10.756-4.384 5.7-17.885 5.7-17.885s-4.781-25.249-6.436-28.581c-1.563-3.244-3.217-5.26-8.182-4.559-5.056 0.614-23.81-9.819-24.914 11.748z" fill="#DCDDDE"/>
<path d="m319.07 424.87-1.103-10.257 19.214-2.63 2.482-3.945 6.16-0.614-1.563 1.929s4.137 2.367 5.975 2.805c1.839 0.438 2.483 5.874 2.483 5.874l-5.516-1.753 1.103 30.246s-10.48-3.507-11.676-5.874c-1.103-2.367-2.482-17.183-2.482-17.183l-15.077 1.402z" fill="#00B0D8"/>
<path d="m364.3 405.94 2.758 3.068-3.217 1.929 1.562 6.751 2.758-3.683s5.976 27.441 7.999 29.195c2.022 1.753 4.78 2.805 4.78 2.805s-0.184-1.753-0.46-5.698c-0.183-3.946-3.217-28.318-3.217-28.318l5.975-5.874-6.619-5.436-12.319 5.261z" fill="#00B0D8"/>
<path d="m364.3 394.19s-2.022-16.658-13.33-18.323c-11.308-1.666-21.972 10.169-20.225 22.268 0 0-5.149 1.666-3.77 7.54 1.379 5.873 6.895 0 6.895 0s16.824 6.575 30.154 2.63c13.239-4.033 0.276-14.115 0.276-14.115z" fill="#FED296"/>
<path d="m375.61 403.31s8.918-20.252 11.676-20.252c2.757 0-4.781 23.495-4.781 23.495l-6.895-3.243z" fill="#FED296"/>
<path d="m364.12 404.62s-1.011-5.962-4.321-5.787c-3.309 0.176-3.677 7.54-3.677 7.54s1.563-2.28 3.402-2.28c1.93 0 4.596 0.527 4.596 0.527z" fill="#141414"/>
<path d="m357.69 400.94 3.401-0.526-0.183-1.315c-0.368-0.087-0.644-0.175-1.104-0.175-1.011 0.088-1.746 0.789-2.298 1.753 0.092 0.176 0.184 0.263 0.184 0.263z" fill="#fff"/>
<path d="m360.08 390.59c-0.827 0-1.471-0.614-1.471-1.403 0-0.263 0.092-0.438 0.184-0.701h-0.184c-1.471 0-2.666 1.14-2.666 2.542 0 1.403 1.195 2.543 2.666 2.543s2.666-1.14 2.666-2.543c0-0.263-0.092-0.613-0.183-0.876-0.184 0.263-0.552 0.438-1.012 0.438z" fill="#141414"/>
<path d="m430.96 286.88c-0.828 0-1.471-0.614-1.471-1.403 0-0.263 0.092-0.438 0.184-0.701h-0.184c-1.471 0-2.666 1.139-2.666 2.542s1.195 2.543 2.666 2.543 2.666-1.14 2.666-2.543c0-0.263-0.092-0.613-0.184-0.876-0.184 0.263-0.552 0.438-1.011 0.438z" fill="#141414"/>
<path d="m439.6 287.58c-0.828 0-1.471-0.613-1.471-1.402 0-0.263 0.092-0.439 0.183-0.702h-0.183c-1.471 0-2.666 1.14-2.666 2.543 0 1.402 1.195 2.542 2.666 2.542s2.666-1.14 2.666-2.542c0-0.263-0.092-0.614-0.184-0.877-0.276 0.263-0.552 0.438-1.011 0.438z" fill="#141414"/>
<path d="m351.44 392.87c-0.828 0-1.471-0.614-1.471-1.403 0-0.263 0.092-0.438 0.184-0.701h-0.184c-1.471 0-2.666 1.139-2.666 2.542s1.195 2.542 2.666 2.542 2.666-1.139 2.666-2.542c0-0.263-0.092-0.614-0.184-0.877-0.276 0.263-0.644 0.439-1.011 0.439z" fill="#141414"/>
<path d="m347.21 389.45s0.827-1.841 1.838-1.753c1.103 0.175-0.184 1.666-1.838 1.753z" fill="#141414"/>
<path d="m355.02 387.52s0.827-1.841 1.839-1.754c1.011 0.088-0.276 1.666-1.839 1.754z" fill="#141414"/>
<path d="m331.02 398.4c1.287 1.929 3.586 5.435 4.413 3.682 0.92-1.753 0.92-3.244 3.678-10.17 2.758-6.838 6.895-14.816 14.249-13.501 7.447 1.315 2.758-1.666 2.758-1.666l1.103-4.559-4.229 0.351 2.85-2.542s-14.709-0.176-20.225 6.75c-5.516 7.014-4.872 9.03-4.872 9.03s-2.207-0.438-3.31 3.595 1.563 9.03 1.563 9.03h2.022z" fill="#141414"/>
<path d="m337.74 388.05s-0.368 13.326 0.919 14.728c1.287 1.403-3.402-1.753-3.402-1.753l2.483-12.975z" fill="#141414"/>
<path d="m428.66 283.37s0.828-2.104 2.023-1.666c1.103 0.526-2.023 1.666-2.023 1.666z" fill="#141414"/>
<path d="m436.75 283.9s0.827-2.104 2.022-1.666c1.103 0.439-2.022 1.666-2.022 1.666z" fill="#141414"/>
<path d="m431.14 301.43s0.367-7.101 3.033-6.4c2.666 0.614 2.666 6.926 2.666 6.926l-5.699-0.526z" fill="#141414"/>
<path d="m489.52 261.19s-2.758-3.682 0.828-9.468c3.585-5.786 14.893-1.315 21.236-1.315 6.435 0 13.698-3.507 13.698-3.507l-0.919 4.033 2.758-0.438s5.976 7.802 2.206 17.884c-3.769 9.995-10.848 18.236-10.848 19.639 0 1.402-4.872 1.315-4.872 1.315l-24.087-28.143z" fill="#141414"/>
<path d="m494.67 253.3 12.871 0.439 5.792 5.26 2.85 14.991s4.229-6.137 7.722-3.331c3.494 2.718-0.184 12.449-4.872 11.397l-3.77 4.208-2.022 17.096 9.745 2.104s-3.31 4.647-12.595 5.523c-9.285 0.877-17.927-7.364-17.927-7.364l11.032-1.052 0.46-11.836s-10.389-1.227-12.595-3.594c-2.207-2.279-2.207-28.668-2.207-28.668l5.516-5.173z" fill="#FED296"/>
<path d="m520.78 324.93s5.241 3.068 1.839 6.575c-3.401 3.507-25.098 4.822-25.098 4.822s-30.889-1.753-32.636-3.945c-1.839-2.192 1.563-6.137 11.4-4.997 9.837 1.052 22.432 2.63 22.432 2.63l22.063-5.085z" fill="#FED296"/>
<path d="m495.13 279.43 7.447 0.438s-1.287 5.173-4.137 4.208c-2.942-0.964-3.31-4.646-3.31-4.646z" fill="#141414"/>
<path d="m501.1 269.08s2.482-2.981 4.229-1.929c1.746 0.964 1.838 1.49 1.838 1.49s-2.85-1.753-6.067 0.439z" fill="#141414"/>
<path d="m501.93 266.28s1.471-3.507 2.85-2.718-2.85 2.718-2.85 2.718z" fill="#141414"/>
<path d="m492.55 266.01s1.471-3.507 2.85-2.718-2.85 2.718-2.85 2.718z" fill="#141414"/>
<path d="m496.41 269.96s-0.459-2.63-2.022-2.63-2.023 1.754-2.023 1.754 1.747-1.052 2.482-0.877c0.828 0.263 0.184 2.016 1.563 1.753z" fill="#141414"/>
<path d="m498.62 276.97s-1.471-2.542-3.954-1.49c-2.482 0.964-4.596-1.403-4.596-1.403s-1.471 3.945 0.919 4.384c2.39 0.438 15.813 1.49 17.375 0.175 1.563-1.315 2.023-3.244 2.023-3.244s-1.747 1.403-3.126 1.666c-1.287 0.087-5.424-3.858-8.641-0.088z" fill="#141414"/>
<path d="m502.48 279.95-5.608-0.351v0.877l5.516 0.088c0-0.439 0.092-0.614 0.092-0.614z" fill="#fff"/>
<path d="m870.11 161.56c-88.005-58.82-337.33-248.88-430.4-114.46-93.07 134.42-126.39 208.71-312.84 98.488-186.45-110.22-114.93 268.16-10.256 403.27 104.67 135.11 538.65 188.45 543.54 0s200.1 0 200.1 0 97.855-328.48 9.85-387.3z" fill="#B97E82" fill-opacity=".67"/>
</svg>
